<?xml version="1.0" encoding="UTF-8" standalone="no"?>
<!-- Created with Inkscape (http://www.inkscape.org/) -->

<svg
   xmlns:dc="http://purl.org/dc/elements/1.1/"
   xmlns:cc="http://creativecommons.org/ns#"
   xmlns:rdf="http://www.w3.org/1999/02/22-rdf-syntax-ns#"
   xmlns:svg="http://www.w3.org/2000/svg"
   xmlns="http://www.w3.org/2000/svg"
   xmlns:sodipodi="http://sodipodi.sourceforge.net/DTD/sodipodi-0.dtd"
   xmlns:inkscape="http://www.inkscape.org/namespaces/inkscape"
   version="1.1"
   id="svg213"
   width="171.77684"
   height="140.34921">
  <metadata
     id="metadata219">
    <rdf:RDF>
      <cc:Work
         rdf:about="">
        <dc:format>image/svg+xml</dc:format>
        <dc:type
           rdf:resource="http://purl.org/dc/dcmitype/StillImage" />
      </cc:Work>
    </rdf:RDF>
  </metadata>
  <defs
     id="defs217" />
  <sodipodi:namedview
     pagecolor="#ffffff"
     bordercolor="#666666"
     borderopacity="1"
     objecttolerance="10"
     gridtolerance="10"
     guidetolerance="10"
     inkscape:pageopacity="0"
     inkscape:pageshadow="2"
     inkscape:window-width="640"
     inkscape:window-height="480"
     id="namedview215" />
  <inkscape:clipboard
     style="font-variant-east_asian:normal;opacity:1;vector-effect:none;fill:#383838;fill-opacity:1;stroke:none;stroke-width:0.13333333;stroke-linecap:butt;stroke-linejoin:miter;stroke-miterlimit:4;stroke-dasharray:none;stroke-dashoffset:0;stroke-opacity:1"
     min="1049.1633,1117.4503"
     max="1220.9401,1257.7996" />
  <path
     inkscape:connector-curvature="0"
     id="path98"
     style="fill:#383838;fill-opacity:1;fill-rule:nonzero;stroke:none;stroke-width:0.13333333"
     d="m 0.10338361,109.38225 c -0.86133331,15.96266 3.49599989,23.584 19.24533239,27.73733 5.326667,1.404 10.865334,2.28533 16.448,2.76667 L 2.7393835,91.702248 C 1.3353836,97.515581 0.4273836,103.42758 0.10338361,109.38225 Z M 5.9273835,80.996914 46.648716,140.34891 c 3.250666,0.007 6.481333,-0.096 9.656,-0.288 22.186666,-1.34 44.290664,-8.49466 62.506664,-20.992 v 0 c 18.216,-12.496 32.848,-30.545329 42.084,-50.763995 1.24667,-2.726667 2.43733,-5.529333 3.54533,-8.386667 L 123.35271,0.02624982 C 97.930048,-0.52441683 71.959382,7.6209163 51.827382,21.432916 31.544716,35.347582 14.503383,56.862248 5.9273835,80.996914 Z m 72.6266645,-26.063999 6.206667,9.048 9.045333,-6.206667 -6.206667,-9.046666 c -0.962666,-1.406667 -0.605333,-3.326667 0.8,-4.289333 1.405334,-0.965334 3.328,-0.608 4.289334,0.797333 l 6.207999,9.046666 9.047996,-6.206666 -6.20666,-9.046666 c -0.96534,-1.405334 -0.608,-3.326667 0.79866,-4.290667 1.40534,-0.965333 3.32667,-0.606667 4.28934,0.798667 l 6.208,9.046666 4.80666,-3.298667 c 2.49734,-1.711999 5.91467,-1.077333 7.62667,1.421334 1.71333,2.498666 1.07733,5.913333 -1.42133,7.629333 l -4.80534,3.296 6.208,9.046666 c 0.96267,1.405334 0.60534,3.328 -0.8,4.290667 -1.40666,0.964 -3.328,0.606666 -4.28933,-0.798667 l -6.21067,-9.046666 -9.04533,6.206666 6.20667,9.046667 c 0.964,1.405333 0.60666,3.326666 -0.79734,4.290666 -1.40533,0.964 -3.32666,0.606667 -4.292,-0.8 l -6.20533,-9.046666 -9.047999,6.208 6.206667,9.046666 c 0.965333,1.405333 0.605333,3.326667 -0.801333,4.290667 -1.402667,0.962666 -3.324,0.606666 -4.288,-0.8 l -6.206667,-9.046667 -9.046666,6.208 6.208,9.046667 c 0.961333,1.405333 0.605333,3.323999 -0.8,4.290666 -1.406667,0.962667 -3.326667,0.604 -4.289334,-0.8 l -6.208,-9.046666 -9.046666,6.208 6.206667,9.046662 c 0.962666,1.40534 0.604,3.32534 -0.8,4.288 -1.405334,0.96534 -3.326667,0.60934 -4.290667,-0.79733 l -6.205333,-9.045333 -4.805333,3.296 c -2.5,1.713333 -5.916,1.078663 -7.629334,-1.42 -1.711999,-2.498666 -1.077333,-5.913333 1.42,-7.626666 l 4.805334,-3.297333 -6.205334,-9.046667 c -0.965333,-1.406666 -0.605333,-3.326666 0.798667,-4.292 1.405333,-0.962666 3.325333,-0.605333 4.290667,0.798667 l 6.206666,9.048 9.046667,-6.209333 -6.206667,-9.044 c -0.962667,-1.408 -0.608,-3.328 0.798667,-4.292 1.405333,-0.964 3.326666,-0.605333 4.292,0.8 l 6.206666,9.046666 9.046667,-6.206666 -6.206667,-9.046667 c -0.965333,-1.406666 -0.606667,-3.329333 0.797333,-4.290666 1.405334,-0.964 3.326667,-0.608 4.292,0.797333 z M 152.49938,4.8289164 c -5.86667,-1.904 -11.91467,-3.2106666 -18.052,-3.97999993 L 167.94471,49.671582 c 1.644,-5.561333 2.87867,-11.238666 3.50667,-16.902666 1.796,-16.188 -3.748,-22.9999998 -18.952,-27.9399996" />
</svg>
