<svg width="36" height="36" viewBox="0 0 36 36" fill="none" xmlns="http://www.w3.org/2000/svg">
<path d="M29.0207 4.52007C25.779 1.88523 21.875 0.601879 17.9993 0.601879C12.9166 0.601269 7.87312 2.80843 4.41726 7.06061C1.78152 10.3026 0.497835 14.2062 0.498444 18.0821C0.497835 23.1653 2.70501 28.2075 6.95736 31.6642C10.1985 34.2994 14.1027 35.583 17.9789 35.583C17.9792 35.583 17.9802 35.583 17.9805 35.583C23.0629 35.583 28.1054 33.3765 31.5613 29.124C34.1965 25.882 35.4796 21.9781 35.4796 18.1025C35.4802 13.0196 33.2733 7.97681 29.0207 4.52007ZM28.7299 29.7719C26.8226 27.44 20.9825 20.368 13.2333 11.6264C14.0306 10.942 14.7999 10.3309 15.5415 9.78579C15.693 9.91294 15.8411 10.0361 15.9841 10.1529C18.2986 12.0462 19.7092 12.5776 21.3281 12.9377C22.9333 13.3034 24.7335 13.5488 28.2961 15.0217C29.9089 15.6897 31.0719 16.3921 31.9032 17.0676C33.0266 17.9863 33.5489 18.8389 33.7907 19.5434C33.5151 22.5755 32.3686 25.5586 30.3026 28.1007C29.8122 28.7045 29.2851 29.2602 28.7299 29.7719ZM33.7737 16.4623C33.7992 16.7087 33.8178 16.9566 33.8318 17.2042C33.5191 16.8371 33.1425 16.4663 32.6895 16.0991C31.7447 15.3317 30.4753 14.5746 28.7734 13.8692C25.1301 12.3574 23.135 12.0696 21.6046 11.7216C20.0824 11.3654 19.0254 11.0031 16.7701 9.18442C16.7144 9.13879 16.6551 9.0892 16.5979 9.04206C19.5464 7.05452 22.0262 6.14866 24.0588 5.89558C24.4889 5.84265 24.8999 5.8171 25.2923 5.8171C26.8001 5.81832 28.0357 6.18182 29.0399 6.70837C31.7986 9.38062 33.4004 12.8544 33.7737 16.4623ZM2.46865 14.7729C3.13373 14.0766 3.87352 13.5233 4.58648 13.234C4.99224 13.0704 5.37962 12.9846 5.74809 12.9846C6.20151 12.9858 6.62975 13.1093 7.06465 13.4022C7.64678 13.8001 8.12718 14.1329 8.52083 14.448C8.12861 14.8815 7.76015 15.3082 7.42089 15.7259C4.67487 19.099 3.59655 21.9753 3.37492 24.2771C2.75967 22.8195 2.36611 21.2836 2.2044 19.7219C2.14806 19.1781 2.12026 18.6311 2.12026 18.0839C2.12026 16.9758 2.236 15.8661 2.46865 14.7729ZM13.3627 5.82107C13.3621 5.85361 13.3617 5.88585 13.3617 5.91871C13.3596 6.95324 13.7614 7.99628 14.6082 8.92496C13.8949 9.45637 13.1607 10.0443 12.4048 10.6935C10.9855 9.09894 9.50708 7.45392 7.98056 5.77573C9.94484 4.17573 12.2241 3.10957 14.6131 2.59094C13.8858 3.55611 13.3907 4.65452 13.3627 5.82107ZM25.2886 4.56904C24.8448 4.56904 24.383 4.59673 23.9042 4.65756C21.5638 4.9511 18.8197 5.99353 15.6318 8.19095C14.8802 7.4168 14.614 6.66517 14.6097 5.9038C14.6097 5.88402 14.6103 5.86638 14.611 5.85117C14.6262 4.96296 15.0548 4.01269 15.7705 3.1336C16.0084 2.84067 16.2797 2.55839 16.5705 2.28888C17.0451 2.24599 17.5211 2.22348 17.9981 2.22348C20.8973 2.22409 23.8072 3.01435 26.3901 4.63078C26.0357 4.59185 25.6692 4.56904 25.2886 4.56904ZM7.04731 6.60464C8.57312 8.28099 10.0512 9.92542 11.4697 11.5187C10.7083 12.2077 10.0095 12.8799 9.3753 13.5342C9.3733 13.5324 9.3715 13.5309 9.36913 13.5288C8.90941 13.1555 8.38407 12.7945 7.76739 12.3726C7.13285 11.9342 6.433 11.7374 5.7424 11.7387C5.18546 11.7387 4.6346 11.8634 4.11343 12.0796C3.76182 12.2241 3.42079 12.4085 3.09166 12.6235C3.68054 11.0199 4.53692 9.48404 5.67548 8.08358C6.10645 7.55369 6.56654 7.06304 7.04731 6.60464ZM4.58362 25.503C4.57994 25.4041 4.57778 25.3046 4.57778 25.203C4.57887 23.0975 5.39447 20.2004 8.38873 16.5125C8.7067 16.1219 9.05198 15.721 9.42057 15.3131C9.84038 15.8232 10.1378 16.4249 10.4375 17.4035C10.8895 18.9168 11.2552 21.2897 11.804 25.2471C12.4052 29.5793 13.5279 32.1174 14.6475 33.6073C12.2787 33.0993 9.99104 32.0402 7.9802 30.4061C6.70212 29.367 5.62854 28.171 4.76315 26.8691C4.66928 26.4587 4.60251 26.0043 4.58362 25.503ZM19.6191 33.8765C19.0737 33.9328 18.5262 33.9611 17.9783 33.9611C17.5385 33.9611 17.0986 33.9429 16.6597 33.906C16.6259 33.8808 16.5921 33.8549 16.5575 33.827C15.4739 32.9482 13.8225 30.7066 13.0395 25.0753C12.4877 21.1084 12.1278 18.7178 11.6331 17.0464C11.3 15.9005 10.8644 15.0768 10.2781 14.3951C10.8876 13.7666 11.5617 13.1181 12.2978 12.4523C16.0726 16.7096 19.3949 20.5724 22.0277 23.6815C24.025 26.0401 25.626 27.9647 26.7277 29.2998C27.1582 29.8209 27.508 30.2479 27.7787 30.5795C25.3841 32.4603 22.5466 33.5739 19.6191 33.8765ZM19.6541 34.2178V34.2172V34.2178Z" fill="#00445E"/>
</svg>