<svg width="36" height="36" viewBox="0 0 36 36" fill="none" xmlns="http://www.w3.org/2000/svg">
<path d="M34.7841 0.621468C34.3613 1.23926 17.1296 27.689 16.6423 28.4154C16.1547 29.1422 14.9842 31.0676 12.188 31.0676C11.4078 31.0676 10.7576 31.0315 10.7576 31.0315C9.58731 30.9225 5.55598 30.3047 4.61286 30.1958C3.70172 30.0903 3.09547 30.8359 3.05646 32.264H6.7662C7.39284 32.264 7.90297 32.8641 7.90297 33.602V34.4789C9.54618 34.5444 11.5064 34.5666 12.5458 34.4105C14.2365 34.1564 14.8166 33.553 15.3743 32.9087C16.0247 32.1575 35.9543 1.38437 35.9543 1.38437C36.2309 0.930553 35.2065 0.00387192 34.7841 0.621468Z" fill="#00445E"/>
<path d="M7.38803 35C7.38803 35.4216 7.10969 35.7629 6.76649 35.7629H1.27541C0.932213 35.7629 0.65387 35.4216 0.65387 35V33.602C0.65387 33.1804 0.932213 32.8393 1.27541 32.8393H6.76649C7.10969 32.8393 7.38803 33.1804 7.38803 33.602V35Z" fill="#00445E"/>
</svg>
