<svg width="99" height="99" viewBox="0 0 99 99" fill="none" xmlns="http://www.w3.org/2000/svg">
<circle cx="49.5" cy="49.5" r="49.5" fill="#618B9B" fill-opacity="0.3"/>
<path d="M50 55.3333C52.9455 55.3333 55.3334 52.9455 55.3334 50C55.3334 47.0545 52.9455 44.6667 50 44.6667C47.0545 44.6667 44.6667 47.0545 44.6667 50C44.6667 52.9455 47.0545 55.3333 50 55.3333Z" fill="white"/>
<path d="M45 33.3333L41.95 36.6667H36.6666C34.8333 36.6667 33.3333 38.1667 33.3333 40V60C33.3333 61.8333 34.8333 63.3333 36.6666 63.3333H63.3333C65.1666 63.3333 66.6666 61.8333 66.6666 60V40C66.6666 38.1667 65.1666 36.6667 63.3333 36.6667H58.05L55 33.3333H45ZM50 58.3333C45.4 58.3333 41.6666 54.6 41.6666 50C41.6666 45.4 45.4 41.6667 50 41.6667C54.6 41.6667 58.3333 45.4 58.3333 50C58.3333 54.6 54.6 58.3333 50 58.3333Z" fill="white"/>
</svg>
