<svg width="37" height="36" viewBox="0 0 37 36" fill="none" xmlns="http://www.w3.org/2000/svg">
<path d="M32.794 7.808C32.0609 6.78447 31.2384 5.85931 30.3443 5.04172C24.3159 -0.47855 15.0531 -1.22853 8.13941 3.71389C7.11381 4.4485 6.19051 5.27223 5.3719 6.16666C-0.147992 12.1941 -0.898645 21.4581 4.04555 28.3707C4.77853 29.3942 5.6011 30.3194 6.49561 31.137C12.5239 36.6572 21.7866 37.4072 28.7002 32.4648C29.7249 31.7302 30.6486 30.9064 31.4674 30.0151C36.9874 23.9846 37.738 14.7237 32.7946 7.808L32.5816 7.96168L32.794 7.808ZM34.6287 20.7818C34.1169 23.8586 32.7365 26.7908 30.5521 29.176C29.791 30.0058 28.9322 30.7712 27.9782 31.4535C24.2858 34.0938 19.8787 34.9852 15.7283 34.2997C12.6505 33.7864 9.71983 32.4064 7.33389 30.221C6.5028 29.4618 5.73785 28.6012 5.05516 27.6484C2.41505 23.9569 1.52286 19.5493 2.21093 15.3968C2.72218 12.3201 4.10257 9.39092 6.28706 7.0027C7.04813 6.17281 7.90744 5.40746 8.86147 4.72511C12.554 2.08485 16.9609 1.19349 21.1113 1.88198C24.1889 2.39221 27.1194 3.77229 29.5055 5.95766C30.3369 6.71992 31.102 7.57747 31.7846 8.5303C34.4249 12.2248 35.3169 16.6293 34.6287 20.7818Z" fill="#00445E"/>
<path d="M22.3792 15.1109L18.0499 20.3976C18.0499 20.3976 16.6336 20.4037 11.5043 18.0339C11.5043 18.0339 11.2957 15.7533 12.032 11.3211C12.032 11.3211 15.7984 9.63366 18.9108 9.59678C18.9108 9.59678 20.3008 11.6223 22.3792 15.1109Z" fill="#00445E"/>
<path d="M6.20384 29.1636C8.16856 28.7671 8.83985 28.0479 8.83985 28.0479C7.16903 23.5604 7.06711 21.6793 7.06711 21.6793C5.10199 21.249 2.88931 18.9837 2.88931 18.9837C2.02253 21.1691 2.05425 22.5645 2.15341 23.2161C2.55203 24.4794 3.10315 25.7119 3.81332 26.8891C5.16119 28.4997 6.20384 29.1636 6.20384 29.1636Z" fill="#00445E"/>
<path d="M19.7326 26.4742C19.7326 26.4742 22.7897 27.6053 25.9863 27.6852C25.9863 27.6852 26.2504 29.6277 25.0593 32.019C25.0593 32.019 21.6964 33.7741 18.4156 33.5743C18.4156 33.5743 16.5794 32.9934 15.0886 30.3285C15.0886 30.3285 17.8589 28.8224 19.7326 26.4742Z" fill="#00445E"/>
<path d="M18.1753 20.1763L19.9541 26.6003L19.608 26.6956L17.8286 20.2716L18.1753 20.1763Z" fill="#00445E"/>
<path d="M11.7561 18.0678L11.6123 18.1754C11.6108 18.1785 10.8153 18.7747 9.86337 19.5309C8.91197 20.2839 7.80342 21.1968 7.19394 21.8053L7.06706 21.9344L6.81287 21.6793L6.94015 21.5533C8.20226 20.29 11.3924 17.8926 11.3961 17.8895L11.5395 17.782L11.7561 18.0678Z" fill="#00445E"/>
<path d="M8.81867 27.8512C11.3403 29.428 13.7534 29.9658 14.7955 30.1349C15.1429 30.1933 15.3328 30.2087 15.3334 30.2087L15.5126 30.2209L15.4837 30.5806L15.3045 30.5652C15.2879 30.5652 12.0664 30.304 8.62801 28.1555L8.47516 28.0602L8.66619 27.7559L8.81867 27.8512Z" fill="#00445E"/>
<path d="M6.65401 30.433C6.57464 30.1257 6.51664 29.8706 6.475 29.6616C6.40608 29.3173 6.38085 29.0991 6.37209 28.97C6.36825 28.9055 6.36754 28.8624 6.36874 28.8409C6.36886 28.8286 6.36981 28.8194 6.37006 28.8163L6.34172 28.8132L6.39778 28.6411L6.04287 28.5858L6.01431 28.761C6.01069 28.7979 5.97383 29.0683 6.16821 29.9505C6.32731 30.1165 6.48941 30.2763 6.65401 30.433Z" fill="#00445E"/>
<path d="M8.0331 8.37967C8.98871 5.74249 10.5046 3.886 10.5046 3.886C10.2906 3.85219 9.54449 3.87986 8.95437 3.90752C8.80213 4.00895 8.65036 4.11346 8.50064 4.22104C5.9908 6.01605 4.11358 8.36431 2.9165 10.9831C3.21188 12.0189 3.49559 12.2156 3.49559 12.2156C4.86039 10.2331 8.0331 8.37967 8.0331 8.37967Z" fill="#00445E"/>
<path d="M8.14284 8.23516C10.4979 10.0394 12.1307 11.1705 12.1344 11.1736H12.1343L12.2824 11.275L12.0776 11.5701L11.9298 11.4686C11.9276 11.4656 10.2853 10.3314 7.92396 8.52101L7.78131 8.41037L8.00019 8.12759L8.14284 8.23516Z" fill="#00445E"/>
<path d="M3.74542 11.7607L3.69489 11.9328C3.69452 11.9359 3.62958 12.1541 3.53758 12.5506C3.44528 12.9471 3.3275 13.5157 3.22508 14.2012C3.01914 15.572 2.87459 17.41 3.11437 19.2696L3.13742 19.4479L2.78093 19.494L2.75801 19.3157C2.26766 15.4982 3.34741 11.8437 3.34956 11.8314H3.34944L3.40037 11.6593L3.74542 11.7607Z" fill="#00445E"/>
<path d="M30.3809 22.5308C30.3809 22.5308 29.9112 19.4325 28.6694 16.2052L31.3509 11.5947C31.3509 11.5947 33.2941 12.7811 34.723 15.1909C34.723 15.1909 35.3808 19.5463 33.9491 21.9314C33.9491 21.9314 32.5048 22.3125 30.3809 22.5308Z" fill="#00445E"/>
<path d="M27.6754 5.87463C27.9477 4.87877 27.4562 3.87983 27.2196 3.48025C24.7413 1.98953 21.9335 1.16272 19.0802 1.05207C18.0745 1.48853 17.1763 1.9588 17.1763 1.9588C18.8758 2.63807 21.2708 5.15848 21.2708 5.15848C22.5888 4.80808 27.6754 5.87463 27.6754 5.87463Z" fill="#00445E"/>
<path d="M21.5175 5.09701L21.4244 5.25069C21.4235 5.25377 20.9443 6.0437 20.4095 6.99345C19.8762 7.94321 19.287 9.05586 19.0807 9.65522L19.022 9.82733L18.6824 9.71054L18.7411 9.53843C19.192 8.23828 21.1133 5.0724 21.1167 5.06318L21.2096 4.9095L21.5175 5.09701Z" fill="#00445E"/>
<path d="M10.0302 3.86446C11.5479 3.29277 17.5956 1.74674 17.6008 1.74674L17.7751 1.70064L17.8642 2.05101L17.6896 2.09406C17.6868 2.09713 16.1755 2.48134 14.4755 2.93931C12.7771 3.39728 10.8844 3.92594 10.1568 4.20257L9.98885 4.26404L9.86206 3.92903L10.0302 3.86446Z" fill="#00445E"/>
<path d="M28.8775 16.0607L28.8158 16.4142L22.1714 15.2554L22.2335 14.9019L28.8775 16.0607Z" fill="#00445E"/>
<path d="M30.6295 22.4785L30.5314 22.6291C30.5265 22.6352 28.5532 25.6812 26.1047 27.8205L25.9695 27.9404L25.7325 27.6699L25.868 27.55C27.0658 26.505 28.1592 25.2232 28.9503 24.2028C29.7415 23.1854 30.2287 22.4355 30.2296 22.4324L30.3273 22.2818L30.6295 22.4785Z" fill="#00445E"/>
<path d="M27.5546 5.42897C27.8801 5.73019 28.2376 6.17587 28.6089 6.69532C30.0422 8.69934 31.6583 11.8191 31.6604 11.8222L31.7434 11.982L31.4244 12.1479L31.3414 11.9881C31.3377 11.982 29.7253 8.87146 28.3163 6.90432C27.9536 6.39717 27.6035 5.96379 27.309 5.69023L27.1781 5.56729L27.4231 5.30603L27.5546 5.42897Z" fill="#00445E"/>
<path d="M34.7623 14.8897C34.7064 14.9542 34.6652 14.9973 34.6394 15.0249C34.6136 15.0495 34.6071 15.0557 34.6071 15.0557L34.4697 15.1694L34.7015 15.446L34.8389 15.3292C34.8506 15.32 34.9631 15.2216 35.1819 14.945C35.1527 14.7883 35.1213 14.6315 35.0875 14.4748C34.9492 14.6653 34.8407 14.8006 34.7623 14.8897Z" fill="#00445E"/>
<path d="M33.9946 25.0357C34.3134 23.2192 34.1044 21.7346 34.1044 21.7223L34.0795 21.5441L33.7232 21.5963L33.7481 21.7715C33.7487 21.7746 33.7749 21.9621 33.7936 22.2971C33.8428 23.1331 33.8342 24.8575 33.2247 26.5572C33.5074 26.0593 33.7644 25.5521 33.9946 25.0357Z" fill="#00445E"/>
<path d="M24.733 31.8193C24.7333 31.8193 24.9159 31.8193 25.2325 31.7947C25.5488 31.7701 25.9945 31.7209 26.5075 31.6226C27.5347 31.4289 28.8309 31.0447 29.9054 30.2855L30.0526 30.1841L30.2598 30.4792L30.1123 30.5806C27.8338 32.1789 24.7493 32.1758 24.7336 32.1789H24.5538L24.5532 31.8193H24.733Z" fill="#00445E"/>
<path d="M16.1412 34.9882C17.47 34.4596 18.499 33.7311 18.6503 33.6266C18.6629 33.6205 18.6693 33.6143 18.6705 33.6143L18.8138 33.5037L18.5977 33.2178L18.4538 33.3254H18.4545C18.4545 33.3254 18.4511 33.3285 18.4409 33.3346C18.2885 33.4483 16.9548 34.3735 15.4008 34.8714C15.6467 34.9145 15.8935 34.9544 16.1412 34.9882Z" fill="#00445E"/>
</svg>
